<svg aria-hidden="true" style="position: absolute; width: 0; height: 0; overflow: hidden;"
    version="1.1" xmlns="http://www.w3.org/2000/svg" xmlns:xlink="http://www.w3.org/1999/xlink">
    <defs>
        <symbol id="icon-NameBurger-Menu" viewBox="0 0 32 32">
            <path stroke-linejoin="miter" stroke-linecap="round" stroke-miterlimit="4"
                stroke-width="1" d="M11.333 12.667h9.333M11.333 16h9.333M11.333 19.333h9.333"></path>
        </symbol>
        <symbol id="icon-SizeLarge" viewBox="0 0 32 32">
            <path stroke-linejoin="miter" stroke-linecap="round" stroke-miterlimit="4"
                stroke-width="2"
                d="M10.667 5.333l10.107 9.41c0.746 0.694 0.746 1.82 0 2.514l-10.107 9.41"></path>
        </symbol>
        <symbol id="icon-SizeLarge1" viewBox="0 0 32 32">
            <path stroke-linejoin="miter" stroke-linecap="round" stroke-miterlimit="4"
                stroke-width="2"
                d="M21.333 26.667l-10.107-9.41c-0.746-0.694-0.746-1.82 0-2.514l10.107-9.41"></path>
        </symbol>
        <symbol id="icon-NameMail" viewBox="0 0 32 32">
            <path fill="#fff" style="fill: var(--color1, #fff)"
                d="M8.359 10.591c0.113-0.526 0.584-0.924 1.141-0.924h13.333c0.557 0 1.028 0.399 1.141 0.924l-7.808 5.465-7.808-5.465zM7.333 10.825c-0 0.005-0 0.009 0 0.014v9.994c0 1.193 0.974 2.167 2.167 2.167h13.333c1.193 0 2.167-0.974 2.167-2.167v-9.994zM24 11.794v9.040c0 0.641-0.526 1.167-1.167 1.167h-13.333c-0.641 0-1.167-0.526-1.167-1.167v-9.040l7.547 5.283c0.172 0.121 0.401 0.121 0.573 0l7.547-5.283zM25 10.825c-0.004-1.189-0.976-2.159-2.167-2.159h-13.333c-1.19 0-2.162 0.969-2.167 2.159z"></path>
        </symbol>
        <symbol id="icon-NameWhatsapp" viewBox="0 0 32 32">
            <path fill="#f8f8f8" style="fill: var(--color2, #f8f8f8)"
                d="M16.167 7.333c-4.859 0-8.833 3.974-8.833 8.833 0 1.523 0.404 2.958 1.051 4.227l-0.741 2.851c-0.227 0.874 0.582 1.663 1.45 1.415l2.757-0.788c1.289 0.727 2.803 1.127 4.317 1.127 4.859 0 8.833-3.974 8.833-8.833s-3.974-8.833-8.833-8.833zM8.333 16.167c0-4.307 3.526-7.833 7.833-7.833s7.833 3.526 7.833 7.833c0 4.307-3.526 7.833-7.833 7.833-1.41 0-2.821-0.393-3.993-1.095-0.119-0.071-0.262-0.090-0.395-0.052l-2.961 0.846c-0.124 0.035-0.24-0.077-0.207-0.202l0.79-3.037c0.032-0.121 0.016-0.25-0.043-0.361-0.634-1.189-1.025-2.525-1.025-3.931zM13.334 13.126c0.165-0.162 0.307-0.209 0.431-0.209l2.824 5.067 0.010 0.005 0.003 0.001h0c0.010 0.005 0.027 0.012 0.045 0.020l0.011 0.005 0.011 0.004c0.103 0.039 0.197 0.047 0.269 0.047 0.203 0 0.376-0.080 0.506-0.208l0.287-0.283c0.074-0.074 0.123-0.107 0.148-0.12l0.015-0.008 0.014-0.009c0.005-0.003 0.008-0.005 0.010-0.006l0.004 0.001c0.006 0.001 0.016 0.004 0.032 0.011 0.040 0.016 0.094 0.045 0.167 0.094l1.244 0.882c0.018 0.013 0.027 0.021 0.030 0.025l0.002 0.003c0.015 0.041 0.019 0.068 0.019 0.094 0 0.060-0.013 0.126-0.046 0.195-0.044 0.093-0.1 0.179-0.174 0.26-0.14 0.154-0.283 0.253-0.435 0.316l-0.003 0.001c-0.162 0.067-0.341 0.104-0.54 0.104-0.304 0-0.647-0.071-1.029-0.234-0.393-0.167-0.793-0.395-1.193-0.687-0.411-0.299-0.8-0.631-1.173-1-0.369-0.372-0.701-0.761-0.996-1.166-0.29-0.402-0.517-0.797-0.681-1.18-0.159-0.377-0.231-0.72-0.231-1.031 0-0.196 0.034-0.376 0.099-0.538v0l0.001-0.003c0.061-0.156 0.161-0.305 0.31-0.446l0.004-0.004 0.004-0.004zM13.765 12.917c0.035 0 0.066 0.008 0.088 0.018l-0 0 0.007 0.003c0.013 0.006 0.022 0.012 0.029 0.018s0.014 0.012 0.021 0.023l0.877 1.234c0.049 0.069 0.077 0.121 0.093 0.16v0l0.003 0.008c0.005 0.013 0.009 0.023 0.011 0.030l-1.128-1.493zM13.765 11.917c-0.43 0-0.813 0.184-1.128 0.492-0.247 0.234-0.432 0.503-0.55 0.802-0.115 0.288-0.171 0.594-0.171 0.908 0 0.468 0.108 0.943 0.31 1.42l0.001 0.001c0.197 0.464 0.465 0.923 0.79 1.375v0l0.002 0.002c0.327 0.449 0.693 0.877 1.097 1.284v0l0.003 0.003c0.408 0.403 0.836 0.768 1.289 1.098l0.001 0c0.455 0.331 0.92 0.598 1.39 0.798 0.482 0.205 0.958 0.314 1.42 0.314 0.326 0 0.635-0.061 0.923-0.18 0.305-0.125 0.567-0.318 0.795-0.568l0-0c0.144-0.159 0.253-0.328 0.337-0.505 0.095-0.201 0.142-0.412 0.142-0.623 0-0.182-0.040-0.339-0.096-0.478l-0.003-0.008-0.003-0.008c-0.083-0.189-0.216-0.336-0.377-0.448l-1.249-0.886c-0.112-0.076-0.23-0.145-0.355-0.195-0.134-0.055-0.274-0.086-0.418-0.086-0.19 0-0.361 0.054-0.512 0.143-0.141 0.076-0.267 0.181-0.377 0.291l-0.139 0.137c-0.073-0.050-0.163-0.118-0.271-0.209-0.185-0.157-0.369-0.33-0.567-0.523-0.184-0.188-0.356-0.377-0.518-0.564-0.090-0.106-0.158-0.195-0.208-0.266l0.141-0.146c0.109-0.11 0.209-0.232 0.285-0.363 0.093-0.155 0.148-0.331 0.148-0.519 0-0.154-0.039-0.299-0.091-0.422-0.051-0.124-0.12-0.243-0.205-0.36l-0.869-1.223c-0.122-0.174-0.278-0.296-0.448-0.375-0.165-0.078-0.343-0.115-0.517-0.115z"></path>
        </symbol>
        <symbol id="icon-NameFacebook" viewBox="0 0 32 32">
            <path fill="none" stroke="#fff" style="stroke: var(--color1, #fff)"
                stroke-linejoin="round" stroke-linecap="round" stroke-miterlimit="4"
                stroke-width="1"
                d="M20.5 7.334h-2.5c-1.105 0-2.165 0.439-2.946 1.22s-1.22 1.841-1.22 2.946v2.5h-2.5v3.333h2.5v6.667h3.333v-6.667h2.5l0.833-3.333h-3.333v-2.5c0-0.221 0.088-0.433 0.244-0.589s0.368-0.244 0.589-0.244h2.5v-3.333z"></path>
        </symbol>
        <symbol id="icon-NameInstagram" viewBox="0 0 32 32">
            <path fill="#fff" style="fill: var(--color1, #fff)"
                d="M8.333 12c0-2.025 1.642-3.667 3.667-3.667h8.333c2.025 0 3.667 1.642 3.667 3.667v8.333c0 2.025-1.642 3.667-3.667 3.667h-8.333c-2.025 0-3.667-1.642-3.667-3.667v-8.333zM12 7.333c-2.577 0-4.667 2.089-4.667 4.667v8.333c0 2.577 2.089 4.667 4.667 4.667h8.333c2.577 0 4.667-2.089 4.667-4.667v-8.333c0-2.577-2.089-4.667-4.667-4.667h-8.333zM14.897 13.615c0.529-0.274 1.131-0.375 1.721-0.288 0.601 0.089 1.158 0.369 1.588 0.799s0.71 0.987 0.799 1.588c0.087 0.59-0.013 1.192-0.288 1.721s-0.709 0.958-1.241 1.226-1.136 0.361-1.724 0.266c-0.588-0.095-1.132-0.372-1.553-0.794s-0.699-0.965-0.794-1.553c-0.095-0.588-0.001-1.192 0.267-1.724s0.697-0.967 1.226-1.241zM16.764 12.338c-0.798-0.118-1.612 0.018-2.328 0.389s-1.296 0.959-1.659 1.679c-0.362 0.72-0.489 1.536-0.361 2.332s0.504 1.531 1.074 2.102 1.306 0.946 2.102 1.074c0.796 0.128 1.612 0.002 2.332-0.361s1.308-0.943 1.679-1.659c0.371-0.716 0.508-1.53 0.389-2.328-0.121-0.814-0.5-1.567-1.081-2.148s-1.335-0.961-2.148-1.081z"></path>
        </symbol>
        <symbol id="icon-NameReview" viewBox="0 0 32 32">
            <path fill="none" stroke="#999" style="stroke: var(--color3, #999)"
                stroke-linejoin="miter" stroke-linecap="butt" stroke-miterlimit="10"
                stroke-width="2"
                d="M19.898 9.451l-2.75-4.787c-0.511-0.889-1.791-0.893-2.308-0.008l-2.902 4.974c-0.384 0.659-1.032 1.122-1.78 1.271l-3.965 0.793c-1.027 0.205-1.427 1.46-0.709 2.222l2.868 3.041c0.613 0.65 0.86 1.565 0.657 2.435l-1.298 5.563c-0.267 1.144 0.968 2.049 1.978 1.45l4.952-2.935c0.838-0.497 1.881-0.497 2.719 0l4.952 2.935c1.010 0.599 2.245-0.306 1.978-1.45l-1.309-5.612c-0.197-0.844 0.028-1.73 0.604-2.378l2.871-3.23c0.684-0.77 0.275-1.991-0.735-2.193l-4.034-0.807c-0.754-0.151-1.406-0.62-1.789-1.287z"></path>
        </symbol>
        <symbol id="icon-NameOrder-History" viewBox="0 0 32 32">
            <path fill="none" stroke="#999" style="stroke: var(--color3, #999)"
                stroke-linejoin="miter" stroke-linecap="round" stroke-miterlimit="4"
                stroke-width="2"
                d="M16 27.874v-20.789M16 27.874c0 0.094 0.102 0.155 0.188 0.113l2.169-1.053c2.293-1.113 4.992-1.113 7.285 0 1.083 0.526 2.357-0.239 2.357-1.415v-18.434c0-0.539-0.261-1.047-0.706-1.371-3.137-2.285-7.451-2.285-10.588 0-0.444 0.324-0.706 0.832-0.706 1.371M16 27.874c0 0.094-0.102 0.155-0.188 0.113l-2.169-1.053c-2.293-1.113-4.992-1.113-7.285 0-1.083 0.526-2.357-0.239-2.357-1.415v-18.434c0-0.539 0.262-1.047 0.706-1.371 3.137-2.285 7.451-2.285 10.588 0 0.444 0.324 0.706 0.832 0.706 1.371"></path>
        </symbol>
        <symbol id="icon-NameOrder-Tracking" viewBox="0 0 32 32">
            <path fill="none" stroke="#999" style="stroke: var(--color3, #999)"
                stroke-linejoin="miter" stroke-linecap="butt" stroke-miterlimit="4" stroke-width="2"
                d="M18.667 23.333v-16c0-0.368-0.299-0.667-0.667-0.667h-14.667c-0.368 0-0.667 0.298-0.667 0.667v16c0 0.368 0.298 0.667 0.667 0.667h2M18.667 23.333c0 0.368-0.299 0.667-0.667 0.667h-7.333M18.667 23.333v-12c0-0.368 0.299-0.667 0.667-0.667h4.391c0.177 0 0.346 0.070 0.471 0.195l4.943 4.943c0.125 0.125 0.195 0.295 0.195 0.471v7.057c0 0.368-0.299 0.667-0.667 0.667h-2M18.667 23.333c0 0.368 0.299 0.667 0.667 0.667h2M5.333 24c0 1.473 1.194 2.667 2.667 2.667s2.667-1.194 2.667-2.667M5.333 24c0-1.473 1.194-2.667 2.667-2.667s2.667 1.194 2.667 2.667M21.333 24c0 1.473 1.194 2.667 2.667 2.667s2.667-1.194 2.667-2.667M21.333 24c0-1.473 1.194-2.667 2.667-2.667s2.667 1.194 2.667 2.667"></path>
        </symbol>
        <symbol id="icon-NameAdress-Book" viewBox="0 0 32 32">
            <path fill="none" stroke="#999" style="stroke: var(--color3, #999)"
                stroke-linejoin="miter" stroke-linecap="round" stroke-miterlimit="4"
                stroke-width="2"
                d="M12 10.667v6.667M20 14.667v6.667M6.187 26.177l4.106-3.422c0.989-0.824 2.425-0.824 3.414 0l4.586 3.821c0.989 0.824 2.425 0.824 3.414 0l5.333-4.445c0.608-0.507 0.959-1.257 0.959-2.049v-13.238c0-1.13-1.319-1.748-2.187-1.024l-4.106 3.422c-0.989 0.824-2.425 0.824-3.414 0l-4.586-3.821c-0.989-0.824-2.425-0.824-3.414 0l-5.333 4.444c-0.608 0.507-0.96 1.257-0.96 2.049v13.238c0 1.131 1.318 1.748 2.187 1.024z"></path>
        </symbol>
        <symbol id="icon-NameWallet" viewBox="0 0 32 32">
            <path fill="#999" style="fill: var(--color3, #999)"
                d="M6.789 26.376v0zM5.624 25.211v0zM25.211 26.376v0zM26.376 25.211v0zM25.211 8.291v0zM26.376 9.456v0zM6.789 8.291v0zM5.624 9.456v0zM20.728 19.855v0zM20.145 19.272v0zM29.188 19.272v0zM28.605 19.855v0zM28.605 14.812v0zM29.188 15.395v0zM20.728 14.812v0zM20.145 15.395v0zM7.629 7.072c-0.513 0.205-0.762 0.787-0.557 1.3s0.787 0.762 1.3 0.557l-0.743-1.857zM19.505 3.398v0zM20.333 8c0 0.552 0.448 1 1 1s1-0.448 1-1h-2zM9.6 9h12.8v-2h-12.8v2zM22.4 25.667h-12.8v2h12.8v-2zM6.333 22.4v-10.133h-2v10.133h2zM25.667 12.267v2.733h2v-2.733h-2zM25.667 20.25v2.15h2v-2.15h-2zM9.6 25.667c-0.763 0-1.276-0.001-1.67-0.033-0.383-0.031-0.566-0.087-0.687-0.149l-0.908 1.782c0.45 0.229 0.925 0.319 1.432 0.36 0.495 0.040 1.103 0.040 1.833 0.040v-2zM4.333 22.4c0 0.73-0.001 1.338 0.040 1.833 0.041 0.507 0.131 0.982 0.36 1.432l1.782-0.908c-0.062-0.121-0.117-0.304-0.149-0.687-0.032-0.395-0.033-0.907-0.033-1.67h-2zM7.243 25.485c-0.314-0.16-0.569-0.415-0.728-0.728l-1.782 0.908c0.352 0.69 0.912 1.251 1.602 1.602l0.908-1.782zM22.4 27.667c0.73 0 1.338 0.001 1.833-0.040 0.507-0.041 0.982-0.131 1.432-0.36l-0.908-1.782c-0.121 0.061-0.304 0.117-0.687 0.149-0.395 0.032-0.907 0.033-1.67 0.033v2zM25.667 22.4c0 0.763-0.001 1.276-0.033 1.67-0.031 0.383-0.087 0.566-0.149 0.687l1.782 0.908c0.229-0.45 0.319-0.925 0.36-1.432 0.040-0.495 0.040-1.103 0.040-1.833h-2zM25.665 27.267c0.69-0.352 1.251-0.913 1.602-1.602l-1.782-0.908c-0.16 0.314-0.415 0.569-0.728 0.728l0.908 1.782zM22.4 9c0.763 0 1.275 0.001 1.67 0.033 0.383 0.031 0.566 0.087 0.687 0.149l0.908-1.782c-0.45-0.229-0.925-0.319-1.432-0.36-0.495-0.040-1.103-0.040-1.833-0.040v2zM27.667 12.267c0-0.73 0.001-1.338-0.040-1.833-0.041-0.507-0.131-0.982-0.36-1.432l-1.782 0.908c0.061 0.121 0.117 0.304 0.149 0.687 0.032 0.395 0.033 0.907 0.033 1.67h2zM24.757 9.182c0.314 0.16 0.569 0.415 0.728 0.728l1.782-0.908c-0.352-0.69-0.913-1.251-1.602-1.602l-0.908 1.782zM9.6 7c-0.73 0-1.338-0.001-1.833 0.040-0.506 0.041-0.982 0.131-1.432 0.36l0.908 1.782c0.121-0.062 0.304-0.117 0.687-0.149 0.395-0.032 0.907-0.033 1.67-0.033v-2zM6.333 12.267c0-0.763 0.001-1.276 0.033-1.67 0.031-0.383 0.087-0.566 0.149-0.687l-1.782-0.908c-0.229 0.45-0.319 0.925-0.36 1.432-0.040 0.495-0.040 1.103-0.040 1.833h2zM6.335 7.4c-0.69 0.352-1.251 0.912-1.602 1.602l1.782 0.908c0.16-0.314 0.415-0.569 0.728-0.728l-0.908-1.782zM22.133 15.667h5.067v-2h-5.067v2zM28.333 16.8v1.067h2v-1.067h-2zM27.2 19h-5.067v2h5.067v-2zM21 17.867v-1.067h-2v1.067h2zM22.133 19c-0.39 0-0.622-0.001-0.794-0.015-0.161-0.013-0.179-0.033-0.157-0.021l-0.908 1.782c0.307 0.156 0.618 0.21 0.902 0.233 0.273 0.022 0.6 0.021 0.957 0.021v-2zM19 17.867c0 0.357-0.001 0.685 0.021 0.957 0.023 0.284 0.076 0.595 0.233 0.902l1.782-0.908c0.011 0.022-0.008 0.003-0.021-0.157-0.014-0.172-0.015-0.405-0.015-0.794h-2zM21.182 18.964c-0.063-0.032-0.114-0.083-0.146-0.146l-1.782 0.908c0.224 0.439 0.581 0.796 1.020 1.020l0.908-1.782zM28.333 17.867c0 0.39-0.001 0.622-0.015 0.794-0.013 0.16-0.033 0.179-0.021 0.157l1.782 0.908c0.156-0.307 0.21-0.618 0.233-0.902 0.022-0.273 0.021-0.6 0.021-0.957h-2zM27.2 21c0.357 0 0.685 0.001 0.957-0.021 0.284-0.023 0.595-0.076 0.902-0.233l-0.908-1.782c0.022-0.011 0.003 0.008-0.157 0.021-0.172 0.014-0.404 0.015-0.794 0.015v2zM28.297 18.818c-0.032 0.063-0.083 0.114-0.146 0.146l0.908 1.782c0.439-0.224 0.796-0.581 1.020-1.020l-1.782-0.908zM27.2 15.667c0.39 0 0.622 0.001 0.794 0.015 0.161 0.013 0.179 0.033 0.157 0.021l0.908-1.782c-0.307-0.157-0.618-0.21-0.902-0.233-0.273-0.022-0.6-0.021-0.957-0.021v2zM30.333 16.8c0-0.357 0.001-0.685-0.021-0.957-0.023-0.284-0.076-0.595-0.233-0.902l-1.782 0.908c-0.011-0.022 0.008-0.003 0.021 0.157 0.014 0.172 0.015 0.404 0.015 0.794h2zM28.151 15.703c0.063 0.032 0.114 0.083 0.146 0.146l1.782-0.908c-0.224-0.439-0.581-0.796-1.020-1.020l-0.908 1.782zM22.133 13.667c-0.357 0-0.685-0.001-0.957 0.021-0.284 0.023-0.595 0.076-0.902 0.233l0.908 1.782c-0.022 0.011-0.003-0.008 0.157-0.021 0.172-0.014 0.404-0.015 0.794-0.015v-2zM21 16.8c0-0.39 0.001-0.622 0.015-0.794 0.013-0.161 0.033-0.179 0.021-0.157l-1.782-0.908c-0.156 0.307-0.21 0.618-0.233 0.902-0.022 0.272-0.021 0.6-0.021 0.957h2zM20.274 13.921c-0.439 0.224-0.796 0.581-1.020 1.020l1.782 0.908c0.032-0.063 0.083-0.114 0.146-0.146l-0.908-1.782zM8.371 8.928l11.505-4.602-0.743-1.857-11.505 4.602 0.743 1.857zM20.333 4.636v3.364h2v-3.364h-2zM19.876 4.327c0.219-0.088 0.457 0.074 0.457 0.309h2c0-1.651-1.667-2.78-3.2-2.166l0.743 1.857z"></path>
        </symbol>
        <symbol id="icon-NameChat" viewBox="0 0 32 32">
            <path fill="#999" style="fill: var(--color3, #999)"
                d="M7.256 22.247v0zM7.256 12.42v0zM8.253 12.244v0zM9.107 12.809v0zM8.253 22.423v0zM9.107 21.857v0zM24.744 22.247v0zM24.744 12.42v0zM23.747 12.244v0zM22.893 12.809v0zM23.747 22.423v0zM22.893 21.857v0zM26.333 22.667c0-0.552-0.448-1-1-1s-1 0.448-1 1h2zM16 25.667c-0.552 0-1 0.448-1 1s0.448 1 1 1v-2zM7.646 21.326c-1.557-0.659-2.646-2.2-2.646-3.993h-2c0 2.624 1.596 4.874 3.866 5.835l0.78-1.842zM5 17.333c0-1.793 1.089-3.334 2.646-3.993l-0.78-1.842c-2.27 0.961-3.866 3.21-3.866 5.835h2zM10.333 20.533v-6.4h-2v6.4h2zM7.646 13.341c0.105-0.044 0.172-0.073 0.23-0.094 0.054-0.020 0.080-0.027 0.092-0.030 0.008-0.002 0.010-0.002 0.014-0.002 0.007 0 0.031 0.001 0.082 0.011l0.38-1.964c-0.311-0.060-0.599-0.065-0.901 0.001-0.259 0.056-0.501 0.163-0.676 0.236l0.78 1.842zM10.333 14.133c0-0.577 0.032-1.244-0.396-1.882l-1.66 1.115c0.015 0.022 0.026 0.038 0.038 0.12 0.017 0.124 0.019 0.293 0.019 0.647h2zM8.063 13.225c-0.034-0.007-0.036-0.012-0.001 0.004 0.030 0.014 0.069 0.035 0.111 0.063s0.077 0.055 0.101 0.077c0.028 0.025 0.023 0.026 0.003-0.003l1.66-1.115c-0.182-0.271-0.447-0.485-0.66-0.627s-0.514-0.302-0.834-0.363l-0.38 1.964zM6.866 23.168c0.174 0.074 0.416 0.18 0.676 0.237 0.302 0.066 0.59 0.061 0.901 0.001l-0.38-1.964c-0.051 0.010-0.075 0.011-0.082 0.011-0.004 0-0.007 0-0.014-0.002-0.011-0.002-0.037-0.009-0.092-0.030-0.058-0.022-0.125-0.050-0.23-0.094l-0.78 1.842zM8.333 20.533c0 0.354-0.002 0.523-0.019 0.647-0.011 0.082-0.023 0.098-0.038 0.12l1.66 1.115c0.428-0.638 0.396-1.305 0.396-1.881h-2zM8.443 23.405c0.32-0.062 0.621-0.222 0.834-0.363s0.478-0.356 0.66-0.627l-1.66-1.115c0.020-0.029 0.025-0.028-0.003-0.003-0.024 0.022-0.059 0.049-0.101 0.077s-0.081 0.049-0.111 0.063c-0.034 0.016-0.033 0.011 0.001 0.004l0.38 1.964zM25.134 23.168c2.27-0.961 3.866-3.21 3.866-5.835h-2c0 1.793-1.089 3.334-2.646 3.993l0.78 1.842zM29 17.333c0-2.624-1.596-4.874-3.866-5.835l-0.78 1.842c1.557 0.659 2.646 2.2 2.646 3.993h2zM23.667 20.533v-6.4h-2v6.4h2zM25.134 11.499c-0.174-0.074-0.416-0.18-0.675-0.236-0.302-0.066-0.59-0.061-0.901-0.001l0.38 1.964c0.051-0.010 0.075-0.011 0.082-0.011 0.005 0 0.007 0 0.014 0.002 0.011 0.002 0.037 0.009 0.091 0.030 0.058 0.022 0.125 0.050 0.23 0.094l0.78-1.842zM23.667 14.133c0-0.354 0.002-0.523 0.019-0.647 0.011-0.082 0.023-0.098 0.038-0.12l-1.66-1.115c-0.428 0.638-0.396 1.305-0.396 1.882h2zM23.557 11.262c-0.321 0.062-0.621 0.222-0.834 0.363s-0.478 0.356-0.66 0.627l1.66 1.115c-0.020 0.029-0.025 0.028 0.003 0.003 0.024-0.022 0.059-0.049 0.101-0.077s0.081-0.049 0.111-0.063c0.034-0.016 0.033-0.011-0.001-0.004l-0.38-1.964zM24.354 21.326c-0.105 0.044-0.172 0.073-0.23 0.094-0.054 0.020-0.080 0.027-0.091 0.030-0.008 0.002-0.010 0.002-0.014 0.002-0.007 0-0.031-0.001-0.082-0.011l-0.38 1.964c0.311 0.060 0.599 0.065 0.901-0.001 0.259-0.057 0.501-0.163 0.675-0.237l-0.78-1.842zM21.667 20.533c0 0.577-0.032 1.244 0.396 1.881l1.66-1.115c-0.015-0.022-0.026-0.038-0.038-0.12-0.017-0.124-0.019-0.293-0.019-0.647h-2zM23.937 21.441c0.034 0.007 0.036 0.012 0.001-0.004-0.030-0.014-0.069-0.035-0.111-0.063s-0.077-0.055-0.101-0.077c-0.028-0.025-0.023-0.026-0.003 0.003l-1.66 1.115c0.182 0.271 0.447 0.485 0.66 0.627s0.514 0.302 0.834 0.363l0.38-1.964zM7.667 13.333c0-4.602 3.731-8.333 8.333-8.333v-2c-5.707 0-10.333 4.626-10.333 10.333h2zM16 5c4.602 0 8.333 3.731 8.333 8.333h2c0-5.707-4.626-10.333-10.333-10.333v2zM24.333 22.667v1.333h2v-1.333h-2zM22.667 25.667h-6.667v2h6.667v-2zM24.333 24c0 0.921-0.746 1.667-1.667 1.667v2c2.025 0 3.667-1.642 3.667-3.667h-2z"></path>
        </symbol>
        <symbol id="icon-NameLog-out" viewBox="0 0 32 32">
            <path fill="#999" style="fill: var(--color3, #999)"
                d="M25.956 16.333c0.552 0 1-0.448 1-1s-0.448-1-1-1v2zM15.038 14.333c-0.552 0-1 0.448-1 1s0.448 1 1 1v-2zM24.247 10.887c-0.385-0.396-1.018-0.406-1.414-0.021s-0.406 1.018-0.021 1.414l1.435-1.393zM25.797 13.919v0zM25.797 16.748v0zM22.812 18.387c-0.385 0.396-0.375 1.029 0.021 1.414s1.029 0.375 1.414-0.021l-1.435-1.393zM26.607 14.947v0zM26.607 15.72v0zM8.176 8.262v0zM8.176 22.404v0zM19.379 7.529c0.475 0.283 1.088 0.127 1.371-0.347s0.127-1.088-0.347-1.371l-1.023 1.718zM20.402 24.856c0.474-0.283 0.63-0.896 0.347-1.371s-0.896-0.63-1.371-0.347l1.023 1.718zM25.956 14.333h-10.918v2h10.918v-2zM22.812 12.28l2.267 2.336 1.435-1.393-2.267-2.336-1.435 1.393zM25.079 16.051l-2.267 2.336 1.435 1.393 2.267-2.336-1.435-1.393zM25.079 14.616c0.252 0.259 0.398 0.411 0.497 0.532 0.092 0.111 0.086 0.13 0.077 0.1l1.907-0.601c-0.099-0.315-0.27-0.563-0.441-0.77-0.163-0.198-0.377-0.417-0.606-0.653l-1.435 1.393zM26.514 17.444c0.229-0.236 0.443-0.455 0.606-0.653 0.171-0.208 0.341-0.455 0.441-0.771l-1.907-0.601c0.009-0.030 0.015-0.011-0.077 0.1-0.099 0.121-0.246 0.273-0.497 0.532l1.435 1.393zM25.654 15.248c0.017 0.055 0.017 0.116 0 0.171l1.907 0.601c0.141-0.447 0.141-0.927 0-1.374l-1.907 0.601zM7.458 7.566c-4.166 4.293-4.166 11.242 0 15.535l1.435-1.393c-3.413-3.517-3.413-9.232 0-12.749l-1.435-1.393zM20.402 5.811c-4.104-2.444-9.442-1.854-12.944 1.755l1.435 1.393c2.848-2.935 7.166-3.406 10.485-1.429l1.023-1.718zM7.458 23.101c3.503 3.609 8.84 4.199 12.944 1.755l-1.023-1.718c-3.319 1.977-7.637 1.505-10.485-1.429l-1.435 1.393z"></path>
        </symbol>
        <symbol id="icon-NameSettings" viewBox="0 0 32 32">
            <path fill="none" stroke="#999" style="stroke: var(--color3, #999)"
                stroke-linejoin="miter" stroke-linecap="butt" stroke-miterlimit="4" stroke-width="2"
                d="M12.638 7.209c0-1.036 0.882-1.876 1.971-1.876h2.783c1.088 0 1.971 0.84 1.971 1.876 0 1.444 1.642 2.346 2.956 1.624 0.943-0.518 2.148-0.211 2.692 0.687l1.392 2.294c0.544 0.897 0.221 2.044-0.721 2.562-1.314 0.722-1.314 2.527 0 3.249 0.943 0.518 1.266 1.665 0.721 2.562l-1.392 2.294c-0.544 0.897-1.749 1.204-2.692 0.687-1.314-0.722-2.956 0.18-2.956 1.624 0 1.036-0.882 1.876-1.971 1.876h-2.783c-1.088 0-1.971-0.84-1.971-1.876 0-1.444-1.642-2.346-2.956-1.624-0.943 0.518-2.148 0.211-2.692-0.687l-1.392-2.294c-0.544-0.897-0.221-2.044 0.721-2.562 1.314-0.722 1.314-2.527 0-3.249-0.943-0.518-1.266-1.665-0.721-2.562l1.392-2.294c0.544-0.897 1.749-1.204 2.692-0.686 1.314 0.722 2.956-0.18 2.956-1.624z"></path>
            <path fill="none" stroke="#999" style="stroke: var(--color3, #999)"
                stroke-linejoin="miter" stroke-linecap="butt" stroke-miterlimit="4" stroke-width="2"
                d="M20.483 16c0 2.356-2.007 4.267-4.483 4.267s-4.483-1.91-4.483-4.267c0-2.356 2.007-4.267 4.483-4.267s4.483 1.91 4.483 4.267z"></path>
        </symbol>
        <symbol id="icon-Nameheart" viewBox="0 0 32 32">
            <path fill="none" stroke="#999" style="stroke: var(--color3, #999)"
                stroke-linejoin="round" stroke-linecap="round" stroke-miterlimit="4"
                stroke-width="2"
                d="M15.992 7.888c-2.399-2.796-6.4-3.548-9.406-0.988s-3.429 6.841-1.069 9.869c1.963 2.518 7.903 7.828 9.85 9.546 0.218 0.192 0.327 0.288 0.454 0.326 0.111 0.033 0.232 0.033 0.343 0 0.127-0.038 0.236-0.134 0.454-0.326 1.947-1.719 7.887-7.029 9.849-9.546 2.361-3.028 1.989-7.336-1.069-9.869s-7.007-1.808-9.406 0.988z"></path>
        </symbol>
        <symbol id="icon-Property-1Living-room" viewBox="0 0 32 32">
            <path
                d="M8.228 26.286c0 0.229 0.131 0.381 0.326 0.381s0.327-0.152 0.327-0.381c0-0.229-0.131-0.381-0.327-0.381s-0.326 0.152-0.326 0.381z"></path>
            <path
                d="M19.266 24.457c-0.196 0-0.327 0.152-0.327 0.381s0.131 0.381 0.327 0.381c0.196 0 0.327-0.152 0.327-0.381 0-0.152-0.131-0.381-0.327-0.381z"></path>
            <path
                d="M1.633 29.714h0.327v1.143c0 0.61 0.457 1.143 0.98 1.143 0.131 0 0.261-0.076 0.392-0.076 0.065 0 0.131-0.076 0.196-0.229 0-0.076 0-0.229 0-0.305-0.065-0.152-0.261-0.305-0.457-0.152-0.196 0.076-0.457-0.076-0.457-0.381v-1.143h11.755v1.143c0 0.61 0.457 1.143 0.98 1.143s0.98-0.533 0.98-1.143v-1.143h1.633c0.914 0 1.633-0.838 1.633-1.905v-1.524c0-0.229-0.131-0.381-0.327-0.381s-0.326 0.152-0.326 0.381v1.524c0 0.61-0.457 1.143-0.98 1.143h-16.327c-0.522 0-0.98-0.533-0.98-1.143v-4.571c0-1.067 0.718-1.905 1.633-1.905s1.633 0.838 1.633 1.905v3.048c0 0.076 0 0.229 0.065 0.229 0.065 0.076 0.131 0.152 0.261 0.152h3.004c0.196 0 0.327-0.152 0.327-0.381s-0.131-0.381-0.327-0.381h-2.678v-2.667c0-1.371-0.849-2.438-1.959-2.59v-1.219c0-1.448 1.045-2.667 2.286-2.667h9.796c1.241 0 2.286 1.219 2.286 2.667v1.219c-1.11 0.152-1.959 1.295-1.959 2.59v2.667h-5.159c-0.196 0-0.326 0.152-0.326 0.381s0.131 0.381 0.326 0.381h5.486c0.065 0 0.196-0.076 0.196-0.152 0.065-0.076 0.131-0.152 0.131-0.229v-3.048c0-1.067 0.718-1.905 1.633-1.905s1.633 0.838 1.633 1.905v0.076c0 0.229 0.131 0.381 0.326 0.381s0.327-0.152 0.327-0.381v-0.076c0-1.371-0.849-2.438-1.959-2.59v-1.219c0-1.905-1.306-3.429-2.939-3.429h-9.796c-1.633 0-2.939 1.524-2.939 3.429v1.219c-1.11 0.152-1.959 1.295-1.959 2.59v4.571c0 1.067 0.718 1.905 1.633 1.905zM15.673 30.857c0 0.229-0.131 0.381-0.326 0.381s-0.327-0.152-0.327-0.381v-1.143h0.653v1.143z"></path>
            <path
                d="M3.266 30.171c0 0.229 0.131 0.381 0.327 0.381s0.327-0.152 0.327-0.381c0-0.229-0.131-0.381-0.327-0.381s-0.327 0.229-0.327 0.381z"></path>
            <path
                d="M26.448 19.048c0.196 0 0.327-0.152 0.327-0.381s-0.131-0.381-0.327-0.381c-0.196 0-0.327 0.152-0.327 0.381s0.131 0.381 0.327 0.381z"></path>
            <path
                d="M31.021 29.714h-2.939v-17.905c0-0.229-0.131-0.381-0.327-0.381h-4.833l0.522-3.429c0-0.076 0-0.229-0.065-0.305s-0.131-0.152-0.196-0.152c-0.196 0-0.326 0.076-0.392 0.305l-0.588 3.886c0 0.076 0 0.229 0.065 0.305s0.131 0.152 0.261 0.152h0.98v3.429c0 0.229 0.131 0.381 0.327 0.381s0.326-0.152 0.326-0.381v-3.429h1.959v4.952c0 0.229 0.131 0.381 0.327 0.381s0.326-0.152 0.326-0.381v-4.952h0.653v17.524h-0.653v-9.524c0-0.229-0.131-0.381-0.326-0.381s-0.327 0.152-0.327 0.381v9.524h-2.939c-0.522 0-0.98 0.533-0.98 1.143s0.457 1.143 0.98 1.143h7.837c0.522 0 0.98-0.533 0.98-1.143s-0.457-1.143-0.98-1.143zM31.021 31.238h-7.837c-0.196 0-0.326-0.152-0.326-0.381s0.131-0.381 0.326-0.381h7.837c0.196 0 0.326 0.152 0.326 0.381s-0.131 0.381-0.326 0.381z"></path>
            <path
                d="M30.172 3.733l1.11 7.695h-1.045c-0.196 0-0.326 0.152-0.326 0.381s0.131 0.381 0.326 0.381h1.437c0.065 0 0.196-0.076 0.261-0.152s0.065-0.229 0.065-0.305l-1.176-8.152c0-0.229-0.196-0.381-0.392-0.305-0.131 0.076-0.261 0.229-0.261 0.457z"></path>
            <path
                d="M23.249 6.781c0.196 0 0.326-0.152 0.392-0.305 0-0.076 0-0.229-0.065-0.305s-0.131-0.152-0.196-0.152c-0.196-0.076-0.326 0.076-0.392 0.305s0.065 0.457 0.261 0.457z"></path>
            <path
                d="M28.605 11.81c0 0.229 0.131 0.381 0.326 0.381s0.327-0.152 0.327-0.381c0-0.229-0.131-0.381-0.327-0.381-0.131 0-0.326 0.152-0.326 0.381z"></path>
            <path
                d="M23.446 5.257c0 0.076 0.065 0.076 0 0 0.196 0 0.327-0.152 0.392-0.305l0.261-1.905h6.269c0.196 0 0.326-0.152 0.326-0.381s-0.131-0.381-0.326-0.381h-6.531c-0.196 0-0.327 0.152-0.327 0.305l-0.326 2.286c0 0.076 0 0.229 0.065 0.305s0.131 0.076 0.196 0.076z"></path>
            <path
                d="M4.245 6.095h4.571c0.065 0 0.196-0.076 0.196-0.152 0.065-0.076 0.131-0.152 0.131-0.229v-5.333c0-0.076-0.065-0.229-0.131-0.305s-0.131-0.076-0.196-0.076h-1.306c-0.196 0-0.327 0.152-0.327 0.381s0.131 0.381 0.327 0.381h0.98v4.571h-3.918v-4.571h0.327c0.196 0 0.327-0.152 0.327-0.381s-0.131-0.381-0.327-0.381h-0.653c-0.065 0-0.196 0-0.261 0.076s-0.065 0.152-0.065 0.305v5.333c0 0.076 0 0.229 0.065 0.229 0.065 0.076 0.196 0.152 0.261 0.152z"></path>
            <path
                d="M6.205 0.762c0.18 0 0.327-0.171 0.327-0.381s-0.146-0.381-0.327-0.381c-0.18 0-0.327 0.171-0.327 0.381s0.146 0.381 0.327 0.381z"></path>
            <path
                d="M10.122 6.095h4.571c0.196 0 0.327-0.152 0.327-0.381v-5.333c0-0.229-0.131-0.381-0.327-0.381h-4.571c-0.196 0-0.327 0.152-0.327 0.381v5.333c0 0.229 0.131 0.381 0.327 0.381zM10.448 0.762h3.918v4.571h-3.918v-4.571z"></path>
            <path
                d="M4.245 12.952h4.571c0.196 0 0.326-0.152 0.326-0.381v-5.333c0-0.229-0.131-0.381-0.326-0.381h-4.571c-0.196 0-0.327 0.152-0.327 0.381v5.333c0 0.229 0.131 0.381 0.327 0.381zM4.572 7.619h3.918v4.571h-3.918v-4.571z"></path>
            <path
                d="M12.081 7.619c0.18 0 0.327-0.171 0.327-0.381s-0.146-0.381-0.327-0.381c-0.18 0-0.326 0.171-0.326 0.381s0.146 0.381 0.326 0.381z"></path>
            <path
                d="M10.122 12.952h4.571c0.065 0 0.196-0.076 0.196-0.152 0.065-0.076 0.131-0.152 0.131-0.229v-5.333c0-0.076-0.065-0.229-0.131-0.305s-0.131-0.076-0.196-0.076h-1.306c-0.196 0-0.326 0.152-0.326 0.381s0.131 0.381 0.326 0.381h0.98v4.571h-3.918v-4.571h0.326c0.196 0 0.327-0.152 0.327-0.381s-0.131-0.381-0.327-0.381h-0.653c-0.065 0-0.196 0-0.261 0.076s-0.065 0.152-0.065 0.305v5.333c0 0.076 0 0.229 0.065 0.229 0.065 0.076 0.196 0.152 0.261 0.152z"></path>
        </symbol>
        <symbol id="icon-Property-1Bathroom" viewBox="0 0 32 32">
            <path
                d="M6.335 29.845c-0.196-0.065-0.392 0.065-0.392 0.196 0 0.065 0 0.196 0 0.261 0.065 0.065 0.131 0.131 0.196 0.131h0.065c0.131 0 0.261-0.065 0.327-0.261 0-0.065 0-0.196 0-0.261-0.065 0.065-0.131 0-0.196-0.065z"></path>
            <path
                d="M3.722 19.918c0 0.196 0.131 0.327 0.327 0.327s0.327-0.131 0.327-0.327c0-0.196-0.131-0.327-0.327-0.327s-0.327 0.131-0.327 0.327z"></path>
            <path
                d="M1.633 22.857h0.98v2.939c0 1.698 0.849 3.2 2.22 4.114 0.131 0.065 0.327 0.065 0.457-0.131 0.065-0.065 0.065-0.196 0.065-0.261s-0.065-0.131-0.131-0.196c-1.241-0.784-1.959-2.155-1.959-3.592v-2.939h16.98v3.004c0 2.351-1.894 4.245-4.245 4.245h-8.49c-0.196 0-0.327 0.131-0.327 0.326s0.131 0.327 0.327 0.327h1.633v0.98c0 0.196 0.131 0.326 0.326 0.326s0.327-0.131 0.327-0.326v-0.98h3.918v0.98c0 0.196 0.131 0.326 0.326 0.326s0.327-0.131 0.327-0.326v-0.98h1.633c2.678 0 4.898-2.22 4.898-4.898v-2.939h0.98c0.914 0 1.633-0.718 1.633-1.633s-0.718-1.633-1.633-1.633h-16.522c-0.065 0-0.065 0-0.131 0.065v-10.188c0-1.241 1.045-2.286 2.286-2.286h1.959c1.241 0 2.286 1.045 2.286 2.286v0.326c-1.829 0.196-3.265 1.698-3.265 3.592 0 0.065 0 0.196 0.065 0.196 0.065 0.065 0.131 0.131 0.261 0.131h6.531c0.065 0 0.196-0.065 0.196-0.131 0.065-0.065 0.131-0.131 0.131-0.196 0-1.894-1.437-3.396-3.265-3.592v-0.326c0-1.633-1.306-2.939-2.939-2.939h-1.959c-1.633 0-2.939 1.306-2.939 2.939v10.449c0 0.196 0.131 0.327 0.327 0.327 0.065 0 0.196-0.065 0.261-0.065 0.065 0.065 0.131 0.065 0.261 0.065h16.457c0.522 0 0.98 0.457 0.98 0.98s-0.457 0.98-0.98 0.98h-20.245c-0.522 0-0.98-0.457-0.98-0.98s0.457-0.98 0.98-0.98h1.11c0.196 0 0.327-0.131 0.327-0.327s-0.131-0.327-0.327-0.327h-1.11c-0.914 0-1.633 0.718-1.633 1.633s0.718 1.633 1.633 1.633zM15.020 13.061h-5.812c0.196-1.502 1.437-2.612 2.939-2.612 1.437 0 2.678 1.11 2.873 2.612z"></path>
            <path
                d="M10.449 14.694c0-0.196-0.131-0.327-0.326-0.327s-0.327 0.131-0.327 0.327v1.959c0 0.196 0.131 0.326 0.327 0.326s0.326-0.131 0.326-0.326v-1.959z"></path>
            <path
                d="M10.123 17.633c-0.196 0-0.327 0.131-0.327 0.326s0.131 0.327 0.327 0.327c0.196 0 0.326-0.131 0.326-0.327s-0.131-0.326-0.326-0.326z"></path>
            <path
                d="M11.102 14.694v3.265c0 0.196 0.131 0.327 0.327 0.327s0.327-0.131 0.327-0.327v-3.265c0-0.196-0.131-0.327-0.327-0.327s-0.327 0.131-0.327 0.327z"></path>
            <path
                d="M13.061 14.694c0-0.196-0.131-0.327-0.327-0.327s-0.326 0.131-0.326 0.327v1.959c0 0.196 0.131 0.326 0.326 0.326s0.327-0.131 0.327-0.326v-1.959z"></path>
            <path
                d="M12.734 17.633c-0.196 0-0.326 0.131-0.326 0.326s0.131 0.327 0.326 0.327c0.196 0 0.327-0.131 0.327-0.327s-0.131-0.326-0.327-0.326z"></path>
            <path
                d="M13.714 14.694v3.265c0 0.196 0.131 0.327 0.326 0.327s0.327-0.131 0.327-0.327v-3.265c0-0.196-0.131-0.327-0.327-0.327s-0.326 0.131-0.326 0.327z"></path>
            <path
                d="M32 14.041c0-0.065-0.065-0.196-0.131-0.261s-0.131-0.065-0.196-0.065h-0.98v-0.653h0.327c0.196 0 0.327-0.131 0.327-0.326s-0.131-0.327-0.327-0.327h-1.306c-0.196 0-0.326 0.131-0.326 0.327s0.131 0.326 0.326 0.326h0.327v0.653h-0.849l-1.11-1.11v-1.176c0-0.065-0.065-0.196-0.131-0.261s-0.131-0.065-0.196-0.065h-1.306c-0.065 0-0.196 0-0.261 0.065s-0.065 0.131-0.065 0.261v1.176l-1.11 1.11h-0.849v-0.653h0.326c0.196 0 0.327-0.131 0.327-0.326s-0.131-0.327-0.327-0.327h-1.306c-0.196 0-0.327 0.131-0.327 0.327s0.131 0.326 0.327 0.326h0.326v0.653h-0.98c-0.065 0-0.196 0-0.261 0.065s-0.065 0.131-0.065 0.261c0 1.829 0.98 3.396 2.482 4.245h-2.155c-0.196 0-0.326 0.131-0.326 0.326s0.131 0.327 0.326 0.327h9.143c0.196 0 0.327-0.131 0.327-0.327s-0.131-0.326-0.327-0.326h-2.155c1.502-0.849 2.482-2.416 2.482-4.245zM26.645 12.931c0.065-0.065 0.131-0.131 0.131-0.196v-0.98h0.653v0.98c0 0.065 0 0.196 0.065 0.196l0.784 0.784h-2.351l0.718-0.784zM27.102 18.286c-2.22 0-4.049-1.698-4.245-3.918h8.49c-0.196 2.22-2.025 3.918-4.245 3.918z"></path>
            <path
                d="M31.020 2.612c0.18 0 0.326-0.146 0.326-0.327s-0.146-0.327-0.326-0.327c-0.18 0-0.327 0.146-0.327 0.327s0.146 0.327 0.327 0.327z"></path>
            <path
                d="M31.347 0.327c0-0.065-0.065-0.196-0.131-0.261s-0.131-0.065-0.196-0.065h-7.837c-0.065 0-0.196 0-0.261 0.065s-0.065 0.131-0.065 0.261v9.143c0 0.065 0 0.196 0.065 0.196 0.065 0.065 0.131 0.131 0.261 0.131h7.837c0.065 0 0.196-0.065 0.196-0.131 0.065-0.065 0.131-0.131 0.131-0.196v-5.878c0-0.196-0.131-0.327-0.326-0.327s-0.327 0.131-0.327 0.327v5.551h-7.184v-8.49h7.184v0.327c0 0.196 0.131 0.327 0.327 0.327s0.326-0.131 0.326-0.327v-0.653z"></path>
            <path
                d="M25.797 5.747c-0.065 0.065-0.065 0.131-0.065 0.261 0 0.065 0.065 0.196 0.065 0.261s0.131 0.065 0.261 0.065c0.065 0 0.196 0 0.261-0.065s0.065-0.131 0.065-0.261c0-0.065 0-0.196-0.065-0.261-0.196-0.131-0.392-0.131-0.522 0z"></path>
            <path
                d="M29.91 2.024c-0.131-0.131-0.327-0.131-0.457 0l-2.808 2.743c-0.131 0.131-0.131 0.327 0 0.457 0.065 0.065 0.131 0.065 0.261 0.065 0.065 0 0.196 0 0.261-0.065l2.743-2.808c0.131 0 0.131-0.261 0-0.392z"></path>
            <path
                d="M24.882 6.661l-0.261 0.261c-0.131 0.131-0.131 0.327 0 0.457 0.065 0.065 0.131 0.131 0.261 0.131 0.065 0 0.196-0.065 0.196-0.131l0.261-0.261c0.065-0.065 0.065-0.131 0.065-0.261 0-0.065 0-0.196-0.065-0.261-0.131-0.065-0.326-0.065-0.457 0.065z"></path>
            <path
                d="M28.604 1.371c-0.131-0.131-0.327-0.131-0.457 0l-2.612 2.612c-0.065 0.065-0.065 0.131-0.065 0.261 0 0.065 0 0.196 0.065 0.196 0.065 0.065 0.131 0.131 0.261 0.131 0.065 0 0.196-0.065 0.196-0.131l2.612-2.612c0.131-0.065 0.131-0.327 0-0.457z"></path>
            <path
                d="M25.534 8.359c0.065 0.065 0.131 0.131 0.261 0.131 0.065 0 0.196-0.065 0.196-0.131l2.612-2.612c0.131-0.131 0.131-0.327 0-0.457s-0.327-0.131-0.457 0l-2.612 2.612c-0.131 0.131-0.131 0.392 0 0.457z"></path>
        </symbol>
        <symbol id="icon-Property-1Design" viewBox="0 0 32 32">
            <path
                d="M16 2.32c-1.76 0.24-3.2 1.68-3.2 3.52 0 0.080 0 0.24 0.080 0.24 0.080 0.080 0.16 0.16 0.32 0.16h6.4c0.080 0 0.24 0 0.24-0.16 0.080-0.080 0.16-0.16 0.16-0.24 0-1.84-1.44-3.36-3.2-3.52v-1.92c0-0.24-0.16-0.4-0.4-0.4s-0.4 0.16-0.4 0.4v1.92zM19.2 5.44h-5.52c0.16-1.36 1.36-2.4 2.8-2.4 1.28 0 2.48 1.040 2.72 2.4z"></path>
            <path
                d="M22.518 0.56c0.184 0 0.306-0.112 0.306-0.28s-0.122-0.28-0.306-0.28h-0.612c-0.061 0-0.184 0-0.245 0.056s-0.061 0.112-0.061 0.224v3.92c0 0.056 0 0.168 0.061 0.168 0.061 0.056 0.122 0.112 0.245 0.112h4.282c0.061 0 0.184 0 0.184-0.112 0.061-0.056 0.122-0.112 0.122-0.168v-3.92c0-0.056-0.061-0.168-0.122-0.224s-0.122-0.056-0.184-0.056h-1.224c-0.184 0-0.306 0.112-0.306 0.28s0.122 0.28 0.306 0.28h0.918v3.36h-3.671v-3.36h0.306z"></path>
            <path
                d="M24.048 0.28c0-0.168-0.122-0.28-0.306-0.28s-0.306 0.112-0.306 0.28c0 0.168 0.122 0.28 0.306 0.28s0.306-0.112 0.306-0.28z"></path>
            <path
                d="M31.694 0h-4.282c-0.184 0-0.306 0.112-0.306 0.28v3.92c0 0.168 0.122 0.28 0.306 0.28h4.282c0.184 0 0.306-0.112 0.306-0.28v-3.92c0-0.168-0.122-0.28-0.306-0.28zM31.389 3.92h-3.671v-3.36h3.671v3.36z"></path>
            <path
                d="M21.6 9.24c0 0.168 0.122 0.28 0.306 0.28h4.282c0.184 0 0.306-0.112 0.306-0.28v-3.92c0-0.168-0.122-0.28-0.306-0.28h-4.282c-0.184 0-0.306 0.112-0.306 0.28v3.92zM22.212 5.6h3.671v3.36h-3.671v-3.36z"></path>
            <path
                d="M31.694 5.040h-1.224c-0.184 0-0.306 0.112-0.306 0.28s0.122 0.28 0.306 0.28h0.918v3.36h-3.671v-3.36h0.306c0.184 0 0.306-0.112 0.306-0.28s-0.122-0.28-0.306-0.28h-0.612c-0.061 0-0.184 0-0.245 0.056s-0.061 0.112-0.061 0.224v3.92c0 0.056 0 0.168 0.061 0.168 0.061 0.056 0.122 0.112 0.245 0.112h4.282c0.061 0 0.184 0 0.184-0.112 0.061-0.056 0.122-0.112 0.122-0.168v-3.92c0-0.056-0.061-0.168-0.122-0.224 0-0.056-0.122-0.056-0.184-0.056z"></path>
            <path
                d="M29.552 5.32c0-0.168-0.122-0.28-0.306-0.28s-0.306 0.112-0.306 0.28c0 0.168 0.122 0.28 0.306 0.28s0.306-0.112 0.306-0.28z"></path>
            <path
                d="M10.3 8.064c0.050-0.075 0.099-0.149 0.099-0.224 0-0.224-0.099-0.373-0.248-0.373h-9.657v-1.717l1.733-2.613 2.278 3.435c0.050 0.075 0.099 0.149 0.198 0.149 0.050 0 0.149-0.075 0.149-0.149 0.099-0.149 0.099-0.373 0-0.523l-1.288-1.941 0.644-0.971 2.278 3.435c0.050 0.075 0.099 0.149 0.198 0.149h1.486c0.149 0 0.248-0.149 0.248-0.373s-0.099-0.373-0.248-0.373h-1.387l-2.427-3.659c-0.099-0.149-0.248-0.149-0.347 0l-0.792 1.269-0.792-1.195c-0.099-0.149-0.248-0.149-0.347 0l-1.535 2.315v-1.344c0-0.224-0.099-0.373-0.248-0.373s-0.248 0.149-0.248 0.373v4.48c0 0.075 0 0.224 0.050 0.224 0.050 0.075 0.099 0.149 0.198 0.149h9.905c0 0 0.099-0.075 0.099-0.149z"></path>
            <path
                d="M10.4 0.373c0-0.075 0-0.224-0.099-0.299-0.050-0.075-0.099-0.075-0.149-0.075h-9.905c-0.050 0-0.149 0-0.198 0.075s-0.050 0.149-0.050 0.299 0.099 0.373 0.248 0.373h9.657v4.107c0 0.224 0.099 0.373 0.248 0.373s0.248-0.149 0.248-0.373v-4.48z"></path>
            <path
                d="M5.943 2.613c0 1.045 0.545 1.867 1.238 1.867s1.238-0.821 1.238-1.867c0-1.045-0.545-1.867-1.238-1.867s-1.238 0.821-1.238 1.867zM7.181 1.493c0.396 0 0.743 0.523 0.743 1.12s-0.347 1.12-0.743 1.12c-0.396 0-0.743-0.523-0.743-1.12s0.347-1.12 0.743-1.12z"></path>
            <path
                d="M11.323 22.095c0.216 0 0.39-0.15 0.39-0.335s-0.175-0.335-0.39-0.335c-0.216 0-0.39 0.15-0.39 0.335s0.175 0.335 0.39 0.335z"></path>
            <path
                d="M26.298 16.058c0.156-0.061 0.156-0.242 0.078-0.303-0.078-0.121-0.233-0.182-0.389-0.182h-4.668c-0.156 0-0.311 0.060-0.389 0.182s0 0.242 0.078 0.303l2.256 1.756v0.787h-5.446v-3.935c0-0.060 0-0.182-0.156-0.242-0.078-0.060-0.156-0.060-0.233-0.060h-1.167v-1.816c0.934-0.121 1.556-0.787 1.556-1.514 0-0.061 0-0.182-0.156-0.242-0.078-0.061-0.156-0.061-0.233-0.061h-1.167v-0.908c0-0.061 0-0.182-0.156-0.242-0.078-0.061-0.156-0.061-0.233-0.061h-1.556c-0.078 0-0.233 0-0.311 0.061s-0.078 0.121-0.078 0.242v2.422c0 0.726 0.7 1.332 1.556 1.453v0.666h-1.089c-0.078 0-0.233 0-0.311 0.060s-0.078 0.121-0.078 0.242v3.935h-5.446v-0.787l2.178-1.756c0.156-0.061 0.156-0.182 0.078-0.303s-0.233-0.182-0.389-0.182h-4.668c-0.156 0-0.311 0.060-0.389 0.182s0 0.242 0.078 0.303l2.256 1.756v0.787h-3.423c-0.934-0.363-2.023-0.605-3.112-0.605-0.078 0-0.233 0-0.311 0.061s-0.078 0.121-0.078 0.242v3.632c0 0.848 0.856 1.514 1.945 1.514h0.233l-2.957 8.112c0 0.060 0 0.182 0 0.242 0.078 0.060 0.156 0.121 0.233 0.121s0.078 0 0.078 0c0.156 0 0.311-0.121 0.389-0.242l2.801-7.446 2.723 7.446c0.078 0.121 0.233 0.242 0.389 0.242h0.078c0.233-0.061 0.311-0.182 0.233-0.363l-2.957-8.112h3.423c0.078 0 0.233 0 0.233-0.121 0.078-0.061 0.156-0.121 0.156-0.182 0-0.726-0.233-1.453-0.622-2.119h2.568c0.233 0 0.389-0.121 0.389-0.303s-0.156-0.303-0.389-0.303h-2.957c-0.389-0.484-0.856-0.848-1.323-1.211h21.085c-0.545 0.363-1.011 0.726-1.323 1.211h-12.371c-0.233 0-0.389 0.121-0.389 0.303s0.156 0.303 0.389 0.303h0.389v0.908c0 0.061 0 0.182 0.078 0.182 0.078 0.061 0.156 0.121 0.311 0.121h1.167v4.541c0 2.482-2.645 4.54-5.835 4.54h-0.778c-0.078 0-0.233 0-0.311 0.061s-0.078 0.121-0.078 0.242c0 0.121 0 0.182 0.078 0.182 0.078 0.060 0.156 0.121 0.311 0.121h15.561c0.078 0 0.233 0 0.233-0.121 0.078-0.061 0.156-0.121 0.156-0.182s0-0.182-0.156-0.242c-0.078-0.061-0.156-0.061-0.233-0.061h-1.634c-0.078-0.060-0.078-0.060-0.156-0.060-0.156 0-0.233 0-0.311 0.060h-0.856c0.078-0.060 0.078-0.182 0-0.242 0-0.060-0.078-0.121-0.233-0.182-2.101-0.726-3.423-2.361-3.423-4.117v-4.541h1.167c0.078 0 0.233 0 0.233-0.121 0.078-0.060 0.156-0.121 0.156-0.182v-0.908h6.069c-0.078 0.182-0.156 0.303-0.233 0.484 0 0.061 0 0.182 0 0.242 0.078 0.061 0.156 0.121 0.233 0.182 0 0 0.078 0 0.156 0 0.156 0 0.311-0.061 0.389-0.182 0.778-1.877 3.034-3.088 5.524-3.088 0.233 0 0.389-0.121 0.389-0.303s-0.156-0.303-0.389-0.303c-1.089 0-2.179 0.242-3.112 0.605h-3.501v-0.787l2.101-1.816zM16.339 11.881v-0.545h0.7c-0.078 0.242-0.389 0.484-0.7 0.545zM14.783 12.244v-2.119h0.778v2.966c-0.467-0.121-0.778-0.484-0.778-0.848zM6.769 16.179h2.801l-1.4 1.090-1.401-1.090zM7.003 22.839h-4.279c-0.622 0-1.167-0.424-1.167-0.908v-3.33c2.879 0.182 5.213 1.998 5.446 4.238zM19.84 31.314h-7.781c2.179-0.908 3.501-2.603 3.501-4.54v-4.541h0.778v4.541c0 1.937 1.323 3.632 3.501 4.54zM17.895 21.628h-3.89v-0.605h3.89v0.605zM14.783 18.601v-3.632h2.334v3.632h-2.334zM22.33 16.179h2.801l-1.401 1.090-1.4-1.090z"></path>
            <path
                d="M31.239 20.218c0-0.201-0.156-0.335-0.39-0.335s-0.39 0.134-0.39 0.335c0 0.201 0.156 0.335 0.39 0.335s0.39-0.134 0.39-0.335z"></path>
            <path
                d="M31.619 32h0.080c0.080 0 0.16-0.054 0.241-0.108s0.080-0.162 0-0.216l-3.048-7.221h0.321c1.123 0 2.006-0.593 2.006-1.347v-1.239c0-0.162-0.16-0.269-0.401-0.269s-0.401 0.108-0.401 0.269v1.239c0 0.431-0.562 0.808-1.203 0.808h-3.69c-0.241 0-0.401 0.108-0.401 0.269s0.16 0.269 0.401 0.269h2.326l-3.048 7.221c0 0.054 0 0.162 0 0.216 0.080 0.054 0.16 0.108 0.241 0.108s0.080 0 0.080 0c0.16 0 0.321-0.108 0.401-0.216l2.888-6.628 2.808 6.628c0.080 0.108 0.241 0.216 0.401 0.216z"></path>
        </symbol>
        <symbol id="icon-Property-1Bedroom" viewBox="0 0 32 32">
            <path
                d="M21.552 14.171c0 0.274 0.131 0.457 0.326 0.457s0.327-0.183 0.327-0.457c0-0.274-0.131-0.457-0.327-0.457s-0.326 0.183-0.326 0.457z"></path>
            <path
                d="M23.184 29.257c0.196 0 0.327-0.183 0.327-0.457s-0.131-0.457-0.327-0.457-0.326 0.183-0.326 0.457c0 0.274 0.131 0.457 0.326 0.457z"></path>
            <path
                d="M6.205 25.6c-0.196 0-0.327 0.183-0.327 0.457s0.131 0.457 0.327 0.457 0.327-0.183 0.327-0.457c0-0.274-0.131-0.457-0.327-0.457z"></path>
            <path
                d="M4.898 18.286h-1.306c-0.196 0-0.327 0.183-0.327 0.457s0.131 0.457 0.327 0.457h1.306c0.196 0 0.327-0.183 0.327-0.457s-0.131-0.457-0.327-0.457z"></path>
            <path
                d="M31.673 16.457h-3.592v-1.829h1.633c0.065 0 0.196-0.091 0.261-0.183s0.065-0.274 0.065-0.366l-0.653-4.571c-0.065-0.183-0.196-0.366-0.327-0.366h-2.612c-0.131 0-0.261 0.183-0.326 0.366l-0.653 4.571c0 0.091 0 0.274 0.065 0.366s0.131 0.183 0.261 0.183h1.633v1.829h-3.265v-2.286c0-0.091 0-0.274-0.131-0.366-0.065-0.091-0.131-0.091-0.196-0.091h-0.653c-0.196 0-0.327 0.183-0.327 0.457s0.131 0.457 0.327 0.457h0.327v5.12c-0.522-0.366-1.045-0.549-1.633-0.549h-0.326v-3.2c0-0.091 0-0.274-0.131-0.366-0.065-0.091-0.131-0.091-0.196-0.091h-4.571c-0.065 0-0.196 0-0.261 0.091s-0.065 0.183-0.065 0.366v3.2h-0.653v-3.2c0-0.091 0-0.274-0.131-0.366-0.065-0.091-0.131-0.091-0.196-0.091h-4.571c-0.065 0-0.196 0-0.261 0.091s-0.065 0.183-0.065 0.366v3.2h-0.326c-0.588 0-1.11 0.183-1.633 0.549v-5.12h12.082c0.196 0 0.326-0.183 0.326-0.457s-0.131-0.457-0.326-0.457h-12.408c-0.065 0-0.196 0-0.261 0.091s-0.065 0.183-0.065 0.366v2.286h-3.265v-1.829h1.633c0.065 0 0.196-0.091 0.261-0.183s0.065-0.274 0.065-0.366l-0.653-4.571c-0.065-0.183-0.196-0.366-0.327-0.366h-2.612c-0.131 0-0.261 0.183-0.327 0.366l-0.653 4.571c0 0.091 0 0.274 0.065 0.366s0.131 0.183 0.261 0.183h1.633v1.829h-3.592c-0.065 0-0.196 0-0.261 0.091s-0.065 0.183-0.065 0.366v9.143c0 0.091 0 0.274 0.065 0.274 0.065 0.091 0.131 0.183 0.261 0.183h4.571c0.196 0 0.327-0.183 0.327-0.457s-0.131-0.457-0.327-0.457h-4.245v-4.571h6.727c-0.522 0.914-0.849 2.011-0.849 3.2v7.314c0 0.091 0 0.274 0.065 0.274 0.065 0.091 0.131 0.183 0.261 0.183h1.959c0.065 0 0.196-0.091 0.196-0.183 0.065-0.091 0.131-0.183 0.131-0.274v-2.286h12.735c0.196 0 0.327-0.183 0.327-0.457s-0.131-0.457-0.327-0.457h-13.061c-0.065 0-0.196 0-0.261 0.091s-0.065 0.183-0.065 0.366v2.286h-1.306v-5.486h17.633v5.486h-1.306v-0.457c0-0.274-0.131-0.457-0.327-0.457s-0.327 0.183-0.327 0.457v0.914c0 0.091 0 0.274 0.065 0.274 0.065 0.091 0.131 0.183 0.261 0.183h1.959c0.065 0 0.196-0.091 0.196-0.183 0.065-0.091 0.131-0.183 0.131-0.274v-5.029h6.204c0.065 0 0.196-0.091 0.196-0.183 0.065-0.091 0.131-0.183 0.131-0.274v-9.143c0-0.091 0-0.274-0.065-0.366s-0.196-0.091-0.261-0.091zM26.71 10.057h2.090l0.522 3.657h-3.135l0.522-3.657zM3.2 10.057h2.090l0.522 3.657h-3.135l0.522-3.657zM16.98 16.457h3.918v2.743h-3.918v-2.743zM11.102 16.457h3.918v2.743h-3.918v-2.743zM0.653 17.371h7.184v2.743h-7.184v-2.743zM7.184 24.686v-0.457c0-2.286 1.306-4.114 2.939-4.114h11.755c1.633 0 2.939 1.829 2.939 4.114v0.457h-17.633zM25.469 25.6v-1.371c0-1.189-0.326-2.286-0.849-3.2h1.176c0.196 0 0.327-0.183 0.327-0.457s-0.131-0.457-0.327-0.457h-1.633v-2.743h7.184v2.743h-2.939c-0.196 0-0.327 0.183-0.327 0.457s0.131 0.457 0.327 0.457h2.939v4.571h-5.878z"></path>
            <path
                d="M27.102 20.114c-0.196 0-0.326 0.183-0.326 0.457s0.131 0.457 0.326 0.457 0.327-0.183 0.327-0.457c0-0.274-0.131-0.457-0.327-0.457z"></path>
            <path
                d="M27.102 19.2h1.306c0.196 0 0.326-0.183 0.326-0.457s-0.131-0.457-0.326-0.457h-1.306c-0.196 0-0.326 0.183-0.326 0.457s0.131 0.457 0.326 0.457z"></path>
            <path
                d="M9.469 2.743c0.18 0 0.327-0.205 0.327-0.457s-0.146-0.457-0.327-0.457c-0.18 0-0.327 0.205-0.327 0.457s0.146 0.457 0.327 0.457z"></path>
            <path
                d="M22.531 7.314c-0.196 0-0.326 0.183-0.326 0.457s0.131 0.457 0.326 0.457c0.196 0 0.327-0.183 0.327-0.457s-0.131-0.457-0.327-0.457z"></path>
            <path
                d="M22.726 9.874c0.065-0.091 0.131-0.183 0.131-0.274 0-0.274-0.131-0.457-0.327-0.457h-12.735v-2.103l2.286-3.2 3.004 4.206c0.065 0.091 0.131 0.183 0.261 0.183 0.065 0 0.196-0.091 0.196-0.183 0.131-0.183 0.131-0.457 0-0.64l-1.698-2.377 0.849-1.189 3.004 4.206c0.065 0.091 0.131 0.183 0.261 0.183h1.959c0.196 0 0.327-0.183 0.327-0.457s-0.131-0.457-0.327-0.457h-1.829l-3.2-4.48c-0.131-0.183-0.327-0.183-0.457 0l-1.045 1.554-1.045-1.463c-0.131-0.183-0.326-0.183-0.457 0l-2.024 2.834v-1.646c0-0.274-0.131-0.457-0.327-0.457s-0.326 0.183-0.326 0.457v5.486c0 0.091 0 0.274 0.065 0.274 0.065 0.091 0.131 0.183 0.261 0.183h13.061c0 0 0.131-0.091 0.131-0.183z"></path>
            <path
                d="M22.856 0.457c0-0.091 0-0.274-0.131-0.366-0.065-0.091-0.131-0.091-0.196-0.091h-13.061c-0.065 0-0.196 0-0.261 0.091s-0.065 0.183-0.065 0.366 0.131 0.457 0.327 0.457h12.735v5.029c0 0.274 0.131 0.457 0.326 0.457s0.327-0.183 0.327-0.457v-5.486z"></path>
            <path
                d="M16.98 3.2c0 1.28 0.718 2.286 1.633 2.286s1.633-1.006 1.633-2.286-0.718-2.286-1.633-2.286c-0.914 0-1.633 1.006-1.633 2.286zM18.612 1.829c0.522 0 0.98 0.64 0.98 1.371s-0.457 1.371-0.98 1.371c-0.522 0-0.98-0.64-0.98-1.371s0.457-1.371 0.98-1.371z"></path>
        </symbol>
        <symbol id="icon-Property-1Garden" viewBox="0 0 32 32">
            <path
                d="M31.546 18.873c-0.195 0-0.325 0.131-0.325 0.327s0.13 0.326 0.325 0.326c0.195 0 0.325-0.131 0.325-0.326s-0.13-0.327-0.325-0.327z"></path>
            <path
                d="M25.756 31.347c-0.195 0-0.325 0.131-0.325 0.327s0.13 0.326 0.325 0.326c0.195 0 0.325-0.131 0.325-0.326s-0.13-0.327-0.325-0.327z"></path>
            <path
                d="M31.545 20.18c-0.195 0-0.325 0.131-0.325 0.326v10.841h-4.163c-0.195 0-0.325 0.131-0.325 0.327s0.13 0.327 0.325 0.327h4.488c0.065 0 0.195 0 0.195-0.131 0.065-0.065 0.13-0.131 0.13-0.196v-11.167c0-0.196-0.13-0.326-0.325-0.326z"></path>
            <path
                d="M27.642 11.951c-0.195 0-0.325 0.131-0.325 0.327s0.13 0.326 0.325 0.326c0.195 0 0.325-0.131 0.325-0.326 0-0.131-0.13-0.327-0.325-0.327z"></path>
            <path
                d="M28.098 0.588c-0.065 0.065-0.065 0.196-0.065 0.261s0.065 0.131 0.13 0.196c0.065 0 0.13 0.065 0.195 0.065 0.13 0 0.195-0.065 0.26-0.131 0.065-0.131 0.065-0.327-0.13-0.457-0.065-0.131-0.26-0.131-0.39 0.065z"></path>
            <path
                d="M24.716 2.939c0-1.241 1.041-2.286 2.276-2.286 0.065 0 0.13 0 0.13 0 0.195 0 0.325-0.131 0.325-0.327s-0.13-0.327-0.325-0.327c-0.065 0-0.13 0-0.195 0-1.626 0-2.927 1.306-2.927 2.939v3.265c-1.236 0.914-1.951 2.351-1.951 3.918 0 1.306 0.52 2.482 1.366 3.461 0.065 0.065 0.13 0.131 0.26 0.131s0.195-0.065 0.195-0.065 0.13-0.131 0.13-0.261c0-0.065 0-0.196-0.065-0.261-0.78-0.784-1.236-1.829-1.236-3.004 0-1.371 0.65-2.678 1.821-3.461 0.065-0.065 0.13-0.196 0.13-0.261v-3.461h0.065z"></path>
            <path
                d="M24.586 14.433c0.065 0 0.13 0.065 0.13 0.065 0.13 0 0.195-0.065 0.26-0.196s0-0.327-0.13-0.457c-0.13-0.131-0.325 0-0.455 0.131 0 0.131 0.065 0.327 0.195 0.457z"></path>
            <path
                d="M29.919 6.204v-3.265c0-0.522-0.13-0.98-0.39-1.437-0.065-0.131-0.26-0.196-0.455-0.131s-0.195 0.261-0.13 0.457c0.195 0.327 0.26 0.718 0.26 1.11v3.461c0 0.131 0.065 0.196 0.13 0.261 1.106 0.784 1.821 2.090 1.821 3.461 0 1.959-1.366 3.657-3.252 4.114v-0.653c0-0.196-0.13-0.327-0.325-0.327s-0.325 0.131-0.325 0.327v3.265l-0.65 0.653v-6.074c0-0.065 0-0.196-0.13-0.261l-0.976-1.045 0.195-0.196 1.041 1.045c0.13 0.131 0.325 0.131 0.455 0l1.106-1.045 0.195 0.196-0.78 0.784c-0.065 0.065-0.065 0.131-0.065 0.196s0 0.196 0.13 0.261c0.13 0.131 0.325 0.131 0.455 0l0.976-0.98c0.065-0.065 0.13-0.131 0.13-0.196s0-0.196-0.13-0.261l-0.65-0.653c-0.13-0.131-0.325-0.131-0.455 0l-1.106 1.045-1.106-1.045c-0.13-0.131-0.325-0.131-0.455 0l-0.65 0.653c-0.065 0.065-0.065 0.131-0.065 0.261 0 0.065 0 0.196 0.065 0.196l1.236 1.241v2.678c-0.13 0-0.325 0.065-0.325 0.261 0 0.065 0 0.196 0.065 0.261s0.13 0.131 0.195 0.131c0 0 0.065 0 0.13 0v3.265l-0.585 0.588c-0.065 0.065-0.065 0.131-0.065 0.261v1.502h-1.951v-1.633c0-0.065-0.065-0.196-0.065-0.261l-2.927-2.939c-0.13-0.131-0.325-0.131-0.455 0l-2.927 2.939c-0.065 0.065-0.065 0.131-0.065 0.261v1.633h-0.65v-0.849c0-0.196-0.13-0.327-0.325-0.327s-0.325 0.131-0.325 0.327v9.143c0 0.196 0.13 0.327 0.325 0.327s0.325-0.131 0.325-0.327v-0.784h0.65v3.592c0 0.196 0.13 0.326 0.325 0.326h5.854c0.195 0 0.325-0.131 0.325-0.326v-3.592h1.951v2.351c0 0.196 0.13 0.327 0.325 0.327s0.325-0.131 0.325-0.327v-11.363l2.602-2.612 1.951 1.959c0.13 0.131 0.325 0.131 0.455 0s0.13-0.326 0-0.457l-2.211-2.155c-0.13-0.131-0.325-0.131-0.455 0l-0.39 0.392v-1.306c2.211-0.457 3.902-2.482 3.902-4.767-0.13-1.567-0.846-3.004-2.081-3.918zM23.415 22.531h1.951v3.592h-1.951v-3.592zM25.366 21.225v0.653h-1.951v-0.653h1.951zM16.26 22.531h0.65v3.592h-0.65v-3.592zM16.911 21.225v0.653h-0.65v-0.653h0.65zM16.26 27.429v-0.653h0.65v0.653h-0.65zM22.764 31.347h-5.203v-12.278l2.602-2.612 2.602 2.612v12.278zM23.415 27.429v-0.653h1.951v0.653h-1.951z"></path>
            <path
                d="M13.334 9.796c1.236 0 2.276 1.045 2.276 2.286v5.029c0 0.196 0.13 0.326 0.325 0.326s0.325-0.131 0.325-0.326v-5.029c0-1.633-1.301-2.939-2.927-2.939-0.195 0-0.325 0.131-0.325 0.326s0.13 0.327 0.325 0.327z"></path>
            <path
                d="M15.935 29.845c-0.195 0-0.325 0.131-0.325 0.326s0.13 0.327 0.325 0.327c0.195 0 0.325-0.131 0.325-0.327s-0.13-0.326-0.325-0.326z"></path>
            <path
                d="M15.935 31.151c-0.195 0-0.325 0.131-0.325 0.327v0.196c0 0.196 0.13 0.326 0.325 0.326s0.325-0.131 0.325-0.326v-0.196c0-0.196-0.13-0.327-0.325-0.327z"></path>
            <path
                d="M15.935 18.090c-0.195 0-0.325 0.131-0.325 0.327s0.13 0.326 0.325 0.326c0.195 0 0.325-0.131 0.325-0.326s-0.13-0.327-0.325-0.327z"></path>
            <path
                d="M13.334 10.449h-0.325v-1.633c0-0.065 0-0.196-0.13-0.261-0.065-0.065-0.13-0.065-0.195-0.065h-2.602c-0.065 0-0.195 0-0.26 0.065s-0.065 0.131-0.065 0.261v0.326h-3.252v-0.326c0-0.065 0-0.196-0.13-0.261-0.065-0.065-0.13-0.065-0.195-0.065h-2.602c-0.065 0-0.195 0-0.26 0.065s-0.065 0.131-0.065 0.261v0.326h-0.325c-1.626 0-2.927 1.306-2.927 2.939v19.592c0 0.196 0.13 0.327 0.325 0.327s0.325-0.131 0.325-0.327v-19.592c0-1.241 1.041-2.286 2.276-2.286h0.325v0.653h-0.325c-0.911 0-1.626 0.718-1.626 1.633v0.653c0 0.196 0.13 0.327 0.325 0.327s0.325-0.131 0.325-0.327v-0.653c0-0.522 0.455-0.98 0.976-0.98h0.325v0.327c0 0.065 0 0.196 0.065 0.196 0.065 0.065 0.13 0.131 0.26 0.131h0.976v14.694c0 0.196 0.13 0.326 0.325 0.326s0.325-0.131 0.325-0.326v-14.694h0.976c0.065 0 0.195 0 0.195-0.131 0.065-0.065 0.13-0.131 0.13-0.196v-0.327h3.252v0.327c0 0.065 0 0.196 0.065 0.196 0.065 0.065 0.13 0.131 0.26 0.131h0.976v15.020h-8.13c-0.065 0-0.195 0-0.26 0.065s-0.065 0.131-0.065 0.261v1.306c0 0.065 0 0.196 0.065 0.196 0.065 0.065 0.13 0.131 0.26 0.131h10.407c0.065 0 0.195 0 0.195-0.131 0.065-0.065 0.13-0.131 0.13-0.196v-1.306c0-0.065 0-0.196-0.13-0.261-0.065-0.065-0.13-0.065-0.195-0.065h-1.626v-15.020h0.976c0.065 0 0.195 0 0.195-0.131 0.065-0.065 0.13-0.131 0.13-0.196v-0.327h0.325c0.52 0 0.976 0.457 0.976 0.98v19.592c0 0.196 0.13 0.327 0.325 0.327s0.325-0.131 0.325-0.327v-19.592c0-0.914-0.715-1.633-1.626-1.633zM13.008 28.082h-9.756v-0.653h9.756v0.653zM5.854 11.102h-1.951v-1.959h1.951v1.959zM6.504 10.449v-0.653h3.252v0.653h-3.252zM12.358 11.102h-1.951v-1.959h1.951v1.959z"></path>
            <path
                d="M1.626 15.020c-0.195 0-0.325 0.131-0.325 0.327v16.326c0 0.196 0.13 0.327 0.325 0.327s0.325-0.131 0.325-0.327v-16.326c0-0.196-0.13-0.327-0.325-0.327z"></path>
            <path
                d="M1.626 13.714c-0.195 0-0.325 0.131-0.325 0.327s0.13 0.326 0.325 0.326c0.195 0 0.325-0.131 0.325-0.326s-0.13-0.327-0.325-0.327z"></path>
        </symbol>
        <symbol id="icon-Property-1Kids-room" viewBox="0 0 32 32">
            <path
                d="M8 21.551c0.229 0 0.381-0.131 0.381-0.327s-0.152-0.326-0.381-0.326c-0.229 0-0.381 0.131-0.381 0.326s0.152 0.327 0.381 0.327z"></path>
            <path
                d="M24.762 0c-3.886 0-7.010 2.612-7.238 5.878h-3.429c-0.61 0-1.143 0.457-1.143 0.98v0.653c0 0.196 0.152 0.327 0.381 0.327 0.076 0 0.229-0.065 0.305-0.131 0.152 0.065 0.305 0.131 0.457 0.131h4.19v3.984c-0.457 0.131-0.762 0.522-0.762 0.914 0 0.522 0.533 0.98 1.143 0.98s1.143-0.457 1.143-0.98c0-0.457-0.305-0.784-0.762-0.914v-3.984h4.19c0.152 0 0.229 0 0.381-0.065v2.090c-0.457 0.131-0.762 0.522-0.762 0.914 0 0.522 0.533 0.98 1.143 0.98s1.143-0.457 1.143-0.98c0-0.457-0.305-0.784-0.762-0.914v-3.004c0-0.522-0.533-0.98-1.143-0.98h-3.429c0.229-2.22 2.362-3.918 4.952-3.918 2.743 0 4.952 1.894 4.952 4.245v9.469h-24c-0.076 0-0.229 0-0.305 0.065s-0.076 0.131-0.076 0.261v15.673c0 0.065 0 0.196 0.076 0.196 0.076 0.065 0.152 0.131 0.305 0.131h2.286c0.076 0 0.229 0 0.229-0.131 0.076-0.065 0.152-0.131 0.152-0.196v-3.592h20.571v3.592c0 0.196 0.152 0.327 0.381 0.327h2.286c0.229 0 0.381-0.131 0.381-0.327v-25.469c0-3.396-3.276-6.204-7.238-6.204zM18.667 13.061c-0.229 0-0.381-0.131-0.381-0.326s0.152-0.327 0.381-0.327c0.229 0 0.381 0.131 0.381 0.327s-0.152 0.326-0.381 0.326zM24 11.102c-0.229 0-0.381-0.131-0.381-0.327s0.152-0.327 0.381-0.327c0.229 0 0.381 0.131 0.381 0.327s-0.152 0.327-0.381 0.327zM23.619 6.857c0 0.196-0.152 0.327-0.381 0.327h-9.143c-0.229 0-0.381-0.131-0.381-0.327s0.152-0.327 0.381-0.327h9.143c0.229 0 0.381 0.131 0.381 0.327zM25.143 25.469v-7.184h0.762v7.184h-0.762zM22.096 25.469v-7.184h2.286v7.184h-2.286zM20.572 25.469v-7.184h0.762v7.184h-0.762zM17.524 25.469v-7.184h2.286v7.184h-2.286zM16 25.469v-7.184h0.762v7.184h-0.762zM12.953 25.469v-7.184h2.286v7.184h-2.286zM11.429 25.469v-7.184h0.762v7.184h-0.762zM26.667 18.286h2.286v7.184h-2.286v-7.184zM28.953 17.633h-20.571v-1.306h20.571v1.306zM7.619 31.347h-1.524v-15.020h1.524v3.592c0 0.196 0.152 0.326 0.381 0.326s0.381-0.131 0.381-0.326v-1.633h2.286v7.184h-2.286v-2.939c0-0.196-0.152-0.327-0.381-0.327s-0.381 0.131-0.381 0.327v8.816zM8.381 27.429v-1.306h20.571v1.306h-20.571zM31.238 31.347h-1.524v-15.020h1.524v15.020zM31.238 15.673h-0.762v-9.469c0-2.678-2.59-4.898-5.714-4.898-3.048 0-5.486 2.025-5.714 4.571h-0.762c0.229-2.939 3.048-5.224 6.476-5.224 3.581 0 6.476 2.482 6.476 5.551v9.469z"></path>
            <path
                d="M13.333 8.49c-0.229 0-0.381 0.131-0.381 0.327s0.152 0.326 0.381 0.326c0.229 0 0.381-0.131 0.381-0.326s-0.152-0.327-0.381-0.327z"></path>
            <path
                d="M12.191 10.776c0 0.522 0.533 0.98 1.143 0.98s1.143-0.457 1.143-0.98c0-0.522-0.533-0.98-1.143-0.98s-1.143 0.457-1.143 0.98zM13.334 11.102c-0.229 0-0.381-0.131-0.381-0.326s0.152-0.327 0.381-0.327c0.229 0 0.381 0.131 0.381 0.327s-0.152 0.326-0.381 0.326z"></path>
            <path
                d="M8 9.796c0.229 0 0.381-0.131 0.381-0.327v-9.143c0-0.196-0.152-0.327-0.381-0.327h-7.619c-0.229 0-0.381 0.131-0.381 0.327v9.143c0 0.196 0.152 0.327 0.381 0.327h7.619zM4.19 5.224c0.61 0 1.143 0.457 1.143 0.98v2.939h-2.286v-2.939c0-0.522 0.533-0.98 1.143-0.98zM3.048 3.592c0-0.522 0.533-0.98 1.143-0.98s1.143 0.457 1.143 0.98c0 0.522-0.533 0.98-1.143 0.98s-1.143-0.457-1.143-0.98zM0.762 0.653h6.857v8.49h-1.524v-2.939c0-0.522-0.305-0.98-0.762-1.306 0.457-0.327 0.762-0.784 0.762-1.306 0-0.914-0.838-1.633-1.905-1.633s-1.905 0.718-1.905 1.633c0 0.522 0.305 0.98 0.762 1.306-0.457 0.327-0.762 0.784-0.762 1.306v2.939h-1.524v-8.49z"></path>
        </symbol>
        <symbol id="icon-Property-1Kitchen" viewBox="0 0 32 32">
            <path
                d="M4.898 31.347c-0.196 0-0.327 0.131-0.327 0.327s0.131 0.326 0.327 0.326c0.196 0 0.327-0.131 0.327-0.326s-0.131-0.327-0.327-0.327z"></path>
            <path
                d="M31.673 15.674h-5.878v-1.371c0.588-0.131 0.98-0.653 0.98-1.241v-1.306c0-0.196-0.131-0.327-0.327-0.327h-1.959c-0.196 0-0.326 0.131-0.326 0.327v1.306c0 0.588 0.392 1.11 0.98 1.241v1.371h-2.939v-2.024c0-0.653-0.261-1.241-0.653-1.698v-0.522c0-0.196-0.131-0.326-0.327-0.326h-0.653c-0.196 0-0.327 0.131-0.327 0.326v0.522c-0.392 0.457-0.653 1.045-0.653 1.698v2.024h-5.551c0.196-0.261 0.327-0.588 0.327-0.98v-1.306c0-0.196-0.131-0.326-0.327-0.326h-10.449c-0.196 0-0.327 0.131-0.327 0.326s0.131 0.327 0.327 0.327h3.592v0.98c0 0.392 0.131 0.718 0.327 0.98h-7.184c-0.065 0-0.196 0-0.261 0.065s-0.065 0.131-0.065 0.261v15.674c0 0.065 0 0.196 0.065 0.196 0.065 0.065 0.131 0.131 0.261 0.131h3.265c0.196 0 0.327-0.131 0.327-0.326s-0.131-0.327-0.327-0.327h-2.939v-15.020h15.020v15.020h-9.469c-0.196 0-0.327 0.131-0.327 0.327s0.131 0.326 0.327 0.326h9.796c0.065 0 0.196 0 0.196-0.131 0.065-0.065 0.131-0.131 0.131-0.196v-14.041h15.347c0.065 0 0.196-0 0.196-0.131 0.065-0.065 0.131-0.131 0.131-0.196v-1.306c0-0.065-0.065-0.196-0.131-0.261 0-0.065-0.131-0.065-0.196-0.065zM24.816 13.061v-0.98h1.306v0.98c0 0.392-0.261 0.653-0.653 0.653s-0.653-0.327-0.653-0.653zM8.816 15.674c-0.522 0-0.98-0.457-0.98-0.98v-0.98h5.878v0.98c0 0.522-0.457 0.98-0.98 0.98h-3.918zM20.245 13.649c0-0.522 0.196-0.98 0.588-1.371 0.065-0.065 0.065-0.131 0.065-0.261 0 0.065 0.065 0.196 0.065 0.261 0.326 0.326 0.588 0.849 0.588 1.371v2.024h-1.306v-2.024zM31.347 16.98h-15.020v-0.653h14.955v0.653h0.065z"></path>
            <path
                d="M1.959 29.714c0 0.196 0.131 0.327 0.327 0.327h11.755c0.196 0 0.326-0.131 0.326-0.327v-9.796c0-0.196-0.131-0.327-0.326-0.327h-11.755c-0.196 0-0.327 0.131-0.327 0.327v9.796zM2.612 20.245h5.42l-2.678 2.678c-0.131 0.131-0.131 0.327 0 0.457 0.065 0.065 0.131 0.065 0.261 0.065s0.196 0 0.261-0.065l3.2-3.2h2.351l-3.984 3.984c-0.131 0.131-0.131 0.327 0 0.457 0.065 0.065 0.131 0.065 0.261 0.065s0.196 0 0.261-0.065l4.506-4.506h1.502v9.143h-11.102v-9.012h-0.261z"></path>
            <path
                d="M2.939 18.939c0.522 0 0.98-0.457 0.98-0.98s-0.457-0.98-0.98-0.98-0.98 0.457-0.98 0.98c0 0.522 0.457 0.98 0.98 0.98zM2.939 17.633c0.196 0 0.327 0.131 0.327 0.327s-0.131 0.326-0.327 0.326c-0.196 0-0.327-0.131-0.327-0.326s0.131-0.327 0.327-0.327z"></path>
            <path
                d="M21.878 20.245h-2.612c-0.914 0-1.633 0.718-1.633 1.633v0.653c0 0.196 0.131 0.327 0.327 0.327h2.286v4.571h-0.98c-0.196 0-0.326 0.131-0.326 0.327s0.131 0.327 0.326 0.327h0.98v3.265h-1.633c-0.196 0-0.327 0.131-0.327 0.327s0.131 0.326 0.327 0.326h3.918c0.196 0 0.326-0.131 0.326-0.326s-0.131-0.327-0.326-0.327h-1.633v-3.265h0.98c0.196 0 0.327-0.131 0.327-0.327s-0.131-0.327-0.327-0.327h-0.98v-4.571h2.286c0.196 0 0.327-0.131 0.327-0.327v-0.653c0-0.914-0.718-1.633-1.633-1.633zM22.857 22.204h-4.571v-0.326c0-0.522 0.457-0.98 0.98-0.98h2.612c0.522 0 0.98 0.457 0.98 0.98v0.326z"></path>
            <path
                d="M28.407 20.245h-2.612c-0.914 0-1.633 0.718-1.633 1.633v0.653c0 0.196 0.131 0.327 0.327 0.327h2.286v4.571h-0.98c-0.196 0-0.326 0.131-0.326 0.327s0.131 0.327 0.326 0.327h0.98v3.265h-1.633c-0.196 0-0.326 0.131-0.326 0.327s0.131 0.326 0.326 0.326h3.918c0.196 0 0.326-0.131 0.326-0.326s-0.131-0.327-0.326-0.327h-1.633v-3.265h0.98c0.196 0 0.327-0.131 0.327-0.327s-0.131-0.327-0.327-0.327h-0.98v-4.571h2.286c0.196 0 0.327-0.131 0.327-0.327v-0.653c0-0.914-0.718-1.633-1.633-1.633zM29.387 22.204h-4.571v-0.326c0-0.522 0.457-0.98 0.98-0.98h2.612c0.522 0 0.98 0.457 0.98 0.98v0.326z"></path>
            <path
                d="M14.367 17.959c0-0.522-0.457-0.98-0.98-0.98s-0.98 0.457-0.98 0.98c0 0.522 0.457 0.98 0.98 0.98s0.98-0.457 0.98-0.98zM13.061 17.959c0-0.196 0.131-0.327 0.327-0.327s0.326 0.131 0.326 0.327c0 0.196-0.131 0.326-0.326 0.326s-0.327-0.131-0.327-0.326z"></path>
            <path
                d="M9.144 17.959c0-0.522-0.457-0.98-0.98-0.98s-0.98 0.457-0.98 0.98c0 0.522 0.457 0.98 0.98 0.98s0.98-0.457 0.98-0.98zM7.837 17.959c0-0.196 0.131-0.327 0.327-0.327s0.326 0.131 0.326 0.327-0.131 0.326-0.326 0.326c-0.196 0-0.327-0.131-0.327-0.326z"></path>
            <path
                d="M9.469 0h-3.918c-0.196 0-0.327 0.131-0.327 0.327v1.633h-0.98c-1.959 0-3.592 1.633-3.592 3.592v0.653c0 0.196 0.131 0.327 0.327 0.327h13.061c0.196 0 0.327-0.131 0.327-0.327v-0.653c0-1.959-1.633-3.592-3.592-3.592h-0.98v-1.633c0-0.196-0.131-0.327-0.327-0.327zM5.878 0.653h3.265v1.306h-3.265v-1.306zM13.714 5.551v0.327h-12.408v-0.327c0-1.633 1.306-2.939 2.939-2.939h6.531c1.633 0 2.939 1.306 2.939 2.939z"></path>
        </symbol>
    </defs>
</svg>
    